HIERARCHY
ROOT Hips
{
	OFFSET 0.00000 0.00000 0.00000
	CHANNELS 6 Xposition Yposition Zposition Zrotation Yrotation Xrotation 
	JOINT LHipJoint
	{
		OFFSET 0 0 0
		CHANNELS 3 Zrotation Yrotation Xrotation
		JOINT LeftUpLeg
		{
			OFFSET 1.57093 -1.69714 0.87455
			CHANNELS 3 Zrotation Yrotation Xrotation
			JOINT LeftLeg
			{
				OFFSET 2.48056 -6.81529 0.00000
				CHANNELS 3 Zrotation Yrotation Xrotation
				JOINT LeftFoot
				{
					OFFSET 2.62558 -7.21374 0.00000
					CHANNELS 3 Zrotation Yrotation Xrotation
					JOINT LeftToeBase
					{
						OFFSET 0.17911 -0.49210 2.16707
						CHANNELS 3 Zrotation Yrotation Xrotation
						End Site
						{
							OFFSET 0.00000 -0.00000 1.11848
						}
					}
				}
			}
		}
	}
	JOINT RHipJoint
	{
		OFFSET 0 0 0
		CHANNELS 3 Zrotation Yrotation Xrotation
		JOINT RightUpLeg
		{
			OFFSET -1.69739 -1.69715 0.87455
			CHANNELS 3 Zrotation Yrotation Xrotation
			JOINT RightLeg
			{
				OFFSET -2.33658 -6.41972 0.00000
				CHANNELS 3 Zrotation Yrotation Xrotation
				JOINT RightFoot
				{
					OFFSET -2.60856 -7.16696 0.00000
					CHANNELS 3 Zrotation Yrotation Xrotation
					JOINT RightToeBase
					{
						OFFSET -0.20854 -0.57296 2.11053
						CHANNELS 3 Zrotation Yrotation Xrotation
						End Site
						{
							OFFSET -0.00000 -0.00000 1.09848
						}
					}
				}
			}
		}
	}
	JOINT LowerBack
	{
		OFFSET 0 0 0
		CHANNELS 3 Zrotation Yrotation Xrotation
		JOINT Spine
		{
			OFFSET 0.02563 2.15732 -0.03270
			CHANNELS 3 Zrotation Yrotation Xrotation
			JOINT Spine1
			{
				OFFSET 0.00281 2.14662 0.09285
				CHANNELS 3 Zrotation Yrotation Xrotation
				JOINT Neck
				{
					OFFSET 0 0 0
					CHANNELS 3 Zrotation Yrotation Xrotation
					JOINT Neck1
					{
						OFFSET -0.04440 1.68397 0.17601
						CHANNELS 3 Zrotation Yrotation Xrotation
						JOINT Head
						{
							OFFSET 0.06040 1.66995 -0.35615
							CHANNELS 3 Zrotation Yrotation Xrotation
							End Site
							{
								OFFSET 0.02405 1.72189 -0.14044
							}
						}
					}
				}
				JOINT LeftShoulder
				{
					OFFSET 0 0 0
					CHANNELS 3 Zrotation Yrotation Xrotation
					JOINT LeftArm
					{
						OFFSET 2.98955 1.90907 -0.21660
						CHANNELS 3 Zrotation Yrotation Xrotation
						JOINT LeftForeArm
						{
							OFFSET 4.91377 -0.00000 0.00000
							CHANNELS 3 Zrotation Yrotation Xrotation
							JOINT LeftHand
							{
								OFFSET 3.00291 -0.00000 -0.00000
								CHANNELS 3 Zrotation Yrotation Xrotation
								JOINT LeftFingerBase
								{
									OFFSET 0 0 0
									CHANNELS 3 Zrotation Yrotation Xrotation
									JOINT LeftHandIndex1
									{
										OFFSET 0.45092 -0.00000 -0.00000
										CHANNELS 3 Zrotation Yrotation Xrotation
										End Site
										{
											OFFSET 0.36355 -0.00000 -0.00000
										}
									}
								}
								JOINT LThumb
								{
									OFFSET 0 0 0
									CHANNELS 3 Zrotation Yrotation Xrotation
									End Site
									{
										OFFSET 0.36910 -0.00000 0.36910
									}
								}
							}
						}
					}
				}
				JOINT RightShoulder
				{
					OFFSET 0 0 0
					CHANNELS 3 Zrotation Yrotation Xrotation
					JOINT RightArm
					{
						OFFSET -2.80452 1.90886 -0.21152
						CHANNELS 3 Zrotation Yrotation Xrotation
						JOINT RightForeArm
						{
							OFFSET -4.86725 -0.00000 0.00000
							CHANNELS 3 Zrotation Yrotation Xrotation
							JOINT RightHand
							{
								OFFSET -3.17144 -0.00000 -0.00000
								CHANNELS 3 Zrotation Yrotation Xrotation
								JOINT RightFingerBase
								{
									OFFSET 0 0 0
									CHANNELS 3 Zrotation Yrotation Xrotation
									JOINT RightHandIndex1
									{
										OFFSET -0.41937 -0.00000 -0.00000
										CHANNELS 3 Zrotation Yrotation Xrotation
										End Site
										{
											OFFSET -0.33810 -0.00000 -0.00000
										}
									}
								}
								JOINT RThumb
								{
									OFFSET 0 0 0
									CHANNELS 3 Zrotation Yrotation Xrotation
									End Site
									{
										OFFSET -0.34327 -0.00000 0.34327
									}
								}
							}
						}
					}
				}
			}
		}
	}
}
MOTION
Frames: 11
Frame Time: .0083333
2.2270 15.1878 12.1093 9.5032 -71.0908 97.2443 0.0000 0.0000 0.0000 10.9161 8.1686 -47.0442 15.2581 19.4521 76.0129 0.8010 5.7459 -19.9452 0.0039 -0.4032 -1.1078 0.0000 0.0000 0.0000 -17.7475 0.4635 -60.0812 -18.4601 -19.9430 85.4934 -0.0814 -7.5778 -12.4153 -0.5106 -4.5804 12.7155 1.6387 5.4919 -27.6885 -2.4144 6.0640 -15.5560 -2.0122 2.4151 -1.7837 -5.2926 -8.2518 -23.8264 9.1725 -10.5953 3.6945 2.5184 -4.6596 5.6409 0.0000 -0.0000 0.0000 108.1575 -83.3021 -123.3304 137.8184 -49.3106 -99.9219 -0.0000 0.0000 -64.5628 42.3320 -9.8555 -8.8623 -7.1250 0.0000 -0.0000 10.6466 16.8959 -7.2194 0.0000 -0.0000 0.0000 47.6486 44.3145 30.8580 -151.1963 39.8457 -109.3653 0.0000 -0.0000 -38.4373 -36.1907 3.8022 -2.7776 7.1250 -0.0000 -0.0000 -7.1853 -25.2681 -3.4566
2.2008 15.1744 12.1066 10.5274 -70.9928 96.3150 0.0000 0.0000 0.0000 10.3999 7.6759 -46.3172 14.0022 19.1147 72.2111 0.7577 6.5725 -20.1152 0.0064 -0.5149 -1.4149 0.0000 0.0000 0.0000 -17.5195 1.0111 -58.5439 -17.2474 -19.8174 81.9283 0.0332 -8.6159 -11.6244 -0.5465 -4.7360 13.1572 1.7787 5.3991 -27.7047 -2.4309 5.9055 -15.5421 -2.1476 2.3215 -1.7532 -5.3727 -8.2215 -24.1586 9.0744 -10.5530 4.5096 2.4849 -4.6084 5.9472 -0.0000 -0.0000 0.0000 108.1048 -82.2335 -123.7385 137.4428 -49.5141 -99.6366 -0.0000 0.0000 -63.8521 42.7059 -9.0486 -8.2591 -7.1250 0.0000 -0.0000 11.0467 17.8830 -7.2573 -0.0000 -0.0000 0.0000 46.0827 45.8912 28.9411 -150.9128 40.0981 -109.1831 0.0000 -0.0000 -38.9019 -36.9463 3.0065 -2.2590 7.1250 -0.0000 -0.0000 -7.8389 -26.2059 -3.6033
2.1736 15.1591 12.1048 11.6108 -70.8814 95.3446 0.0000 0.0000 0.0000 9.9307 7.1498 -45.6075 12.7694 18.6973 68.4076 0.7062 7.2684 -20.1427 0.0118 -0.7022 -1.9298 0.0000 0.0000 0.0000 -17.2858 1.5238 -57.0229 -16.0354 -19.6189 78.3373 0.1581 -9.6801 -10.6259 -0.5938 -4.9335 13.7189 1.9167 5.2995 -27.7289 -2.4407 5.7381 -15.5250 -2.2767 2.2240 -1.7179 -5.4445 -8.1782 -24.4170 8.9659 -10.4939 5.2897 2.4522 -4.5540 6.2310 0.0000 0.0000 0.0000 108.0278 -81.1924 -124.1234 136.9934 -49.7537 -99.2942 -0.0000 0.0000 -63.2765 43.1213 -8.3246 -7.7214 -7.1250 0.0000 -0.0000 11.4630 18.7655 -7.3135 0.0000 0.0000 0.0000 44.3583 47.3933 26.8718 -150.5746 40.3958 -108.9647 0.0000 -0.0000 -39.4917 -37.7129 2.1703 -1.6773 7.1250 -0.0000 -0.0000 -8.5142 -27.2096 -3.7171
2.1450 15.1422 12.1039 12.7143 -70.7697 94.3637 0.0000 0.0000 0.0000 9.5025 6.5756 -44.8944 11.5700 18.2029 64.6190 0.6466 7.8572 -20.0278 0.0202 -0.9166 -2.5193 0.0000 0.0000 0.0000 -17.0647 2.0175 -55.5168 -14.8319 -19.3472 74.7298 0.2877 -10.7693 -9.4548 -0.6533 -5.1700 14.3941 2.0486 5.1967 -27.7543 -2.4526 5.5687 -15.5013 -2.4051 2.1263 -1.6759 -5.5296 -8.1290 -24.5979 8.8880 -10.4263 6.0227 2.4357 -4.4979 6.4918 0.0000 0.0000 0.0000 107.9105 -80.1717 -124.4799 136.4694 -50.0280 -98.8934 -0.0000 0.0000 -62.8345 43.4958 -7.6467 -7.1958 -7.1250 0.0000 -0.0000 11.8463 19.6043 -7.3422 0.0000 0.0000 0.0000 42.4825 48.8218 24.6332 -150.1708 40.7466 -108.7020 0.0000 -0.0000 -40.2142 -38.4477 1.2505 -0.9926 7.1250 -0.0000 -0.0000 -9.1853 -28.3371 -3.7692
2.1145 15.1241 12.1037 13.8083 -70.6616 93.3919 0.0000 0.0000 0.0000 9.1214 5.9332 -44.1538 10.4140 17.6362 60.8634 0.5768 8.3861 -19.7745 0.0309 -1.1352 -3.1209 0.0000 0.0000 0.0000 -16.8633 2.5118 -54.0169 -13.6437 -19.0024 71.1132 0.4154 -11.8725 -8.1640 -0.7232 -5.4342 15.1512 2.1737 5.0911 -27.7680 -2.4681 5.3985 -15.4699 -2.5346 2.0293 -1.6316 -5.6476 -8.0757 -24.7268 8.8621 -10.3503 6.7313 2.4445 -4.4372 6.7429 -0.0000 -0.0000 0.0000 107.7545 -79.1693 -124.8069 135.8584 -50.3410 -98.4241 -0.0000 0.0000 -62.4758 43.7946 -7.0040 -6.6683 -7.1250 0.0000 -0.0000 12.1740 20.4164 -7.3274 -0.0000 -0.0000 0.0000 40.4755 50.1840 22.2268 -149.6913 41.1565 -108.3878 0.0000 -0.0000 -41.0809 -39.1152 0.2409 -0.1959 7.1250 -0.0000 -0.0000 -9.8266 -29.5988 -3.7404
2.0819 15.1049 12.1042 14.8516 -70.5655 92.4642 0.0000 0.0000 0.0000 8.7912 5.2045 -43.3681 9.3116 17.0041 57.1615 0.4937 8.9114 -19.3844 0.0432 -1.3416 -3.6893 0.0000 0.0000 0.0000 -16.6926 3.0228 -52.5226 -12.4779 -18.5854 67.4958 0.5359 -12.9772 -6.8170 -0.8031 -5.7194 15.9724 2.2930 4.9904 -27.7673 -2.4980 5.2387 -15.4271 -2.6745 1.9388 -1.5800 -5.7683 -8.0179 -24.8237 8.8743 -10.2737 7.4222 2.4681 -4.3753 6.9873 -0.0000 0.0000 0.0000 107.3983 -78.1818 -124.8921 135.1584 -50.6906 -97.8839 -0.0000 0.0000 -62.1842 44.0324 -6.4201 -6.1699 -7.1250 0.0000 -0.0000 12.4505 21.1655 -7.2859 -0.0000 0.0000 0.0000 38.3456 51.4726 19.6511 -149.1236 41.6329 -108.0123 0.0000 -0.0000 -42.0578 -39.6764 -0.8882 0.7367 7.1250 -0.0000 -0.0000 -10.4119 -31.0330 -3.6068
2.0477 15.0854 12.1050 15.8281 -70.4805 91.5941 0.0000 0.0000 0.0000 8.5300 4.3617 -42.5234 8.2713 16.3152 53.5341 0.3968 9.4758 -18.8833 0.0555 -1.5206 -4.1825 0.0000 0.0000 0.0000 -16.5523 3.5613 -51.0369 -11.3434 -18.0991 63.8919 0.6488 -14.0980 -5.4784 -0.8840 -5.9934 16.7652 2.4113 4.8968 -27.7466 -2.5438 5.0911 -15.3745 -2.8289 1.8554 -1.5248 -5.8494 -7.9498 -24.9118 8.8850 -10.1965 8.1112 2.4865 -4.3132 7.2289 0.0000 -0.0000 0.0000 106.9477 -77.2038 -124.8506 134.3772 -51.0700 -97.2778 -0.0000 0.0000 -61.9331 44.1769 -5.8236 -5.6307 -7.1250 0.0000 -0.0000 12.6663 21.9492 -7.1869 0.0000 -0.0000 0.0000 36.1118 52.6850 16.9353 -148.4519 42.1840 -107.5637 0.0000 -0.0000 -43.1183 -40.1572 -2.0468 1.7262 7.1250 -0.0000 -0.0000 -10.9484 -32.5217 -3.3993
2.0123 15.0657 12.1062 16.6984 -70.4057 90.8127 0.0000 0.0000 0.0000 8.3509 3.3903 -41.6033 7.3011 15.5803 50.0040 0.2841 10.1551 -18.3199 0.0704 -1.7117 -4.7096 0.0000 0.0000 0.0000 -16.4398 4.1412 -49.5647 -10.2502 -17.5482 60.3213 0.7539 -15.2242 -4.2028 -0.9619 -6.2449 17.4965 2.5252 4.8194 -27.7006 -2.6034 4.9693 -15.3121 -2.9901 1.7866 -1.4682 -5.8762 -7.8761 -25.0063 8.8633 -10.1254 8.8147 2.4856 -4.2552 7.4732 0.0000 0.0000 0.0000 106.4730 -76.2306 -124.7504 133.5251 -51.4709 -96.6131 -0.0000 0.0000 -61.7089 44.2452 -5.2394 -5.0826 -7.1250 0.0000 -0.0000 12.8272 22.7293 -7.0479 0.0000 0.0000 0.0000 33.7486 53.7832 14.0672 -147.6831 42.7984 -107.0444 0.0000 -0.0000 -44.2416 -40.5392 -3.2356 2.7637 7.1250 -0.0000 -0.0000 -11.4190 -34.0611 -3.1168
1.9762 15.0465 12.1070 17.4480 -70.3416 90.1281 0.0000 0.0000 0.0000 8.2662 2.2696 -40.6014 6.4065 14.8110 46.5921 0.1611 10.9751 -17.7996 0.0855 -1.8863 -5.1916 0.0000 0.0000 0.0000 -16.3516 4.7667 -48.1173 -9.2091 -16.9404 56.8106 0.8551 -16.3669 -3.0328 -1.0407 -6.4881 18.2074 2.6083 4.7569 -27.6244 -2.6677 4.8785 -15.2405 -3.1321 1.7375 -1.4150 -5.8291 -7.7992 -25.1180 8.7730 -10.0646 9.5477 2.4491 -4.2053 7.7240 -0.0000 0.0000 0.0000 106.0625 -75.2605 -124.6748 132.5872 -51.8972 -95.8772 -0.0000 0.0000 -61.4783 44.2668 -4.6770 -4.5442 -7.1250 0.0000 -0.0000 12.9510 23.4871 -6.8877 -0.0000 0.0000 0.0000 31.1639 54.6820 10.9596 -146.8620 43.4359 -106.4831 0.0000 -0.0000 -45.4820 -40.8827 -4.3442 3.7518 7.1250 -0.0000 -0.0000 -11.8558 -35.5063 -2.8152
1.9399 15.0280 12.1075 18.0325 -70.2894 89.5820 0.0000 0.0000 0.0000 8.2770 1.0038 -39.5230 5.5919 14.0208 43.3210 0.0300 11.9664 -17.4236 0.0993 -2.0319 -5.5938 0.0000 0.0000 0.0000 -16.2842 5.4440 -46.7151 -8.2301 -16.2859 53.3874 0.9554 -17.5180 -1.9953 -1.1196 -6.7215 18.8928 2.6459 4.7195 -27.5216 -2.7378 4.8361 -15.1616 -3.2428 1.7183 -1.3649 -5.6814 -7.7247 -25.2562 8.5841 -10.0248 10.3213 2.3606 -4.1697 7.9845 -0.0000 -0.0000 0.0000 105.9376 -74.2854 -124.8691 131.5472 -52.3521 -95.0562 -0.0000 0.0000 -61.2212 44.2567 -4.1080 -3.9928 -7.1250 0.0000 -0.0000 13.0533 24.2580 -6.7060 -0.0000 -0.0000 0.0000 28.3674 55.3401 7.6293 -145.9982 44.0860 -105.8857 0.0000 -0.0000 -46.8105 -41.1761 -5.3997 4.7055 7.1250 -0.0000 -0.0000 -12.2510 -36.8881 -2.4905
1.9039 15.0105 12.1072 18.4641 -70.2476 89.1601 0.0000 0.0000 0.0000 8.3837 -0.4142 -38.3832 4.8592 13.2234 40.2108 -0.1090 13.1466 -17.2912 0.1076 -2.1151 -5.8237 0.0000 0.0000 0.0000 -16.2301 6.1642 -45.3682 -7.3212 -15.5965 50.0790 1.0587 -18.6731 -1.1115 -1.2008 -6.9527 19.5755 2.6585 4.6867 -27.3948 -2.7828 4.8074 -15.0738 -3.3093 1.7100 -1.3185 -5.5159 -7.6388 -25.3959 8.3504 -9.9699 11.1334 2.2564 -4.1301 8.2554 -0.0000 -0.0000 0.0000 105.8856 -73.3263 -125.1646 130.3899 -52.8370 -94.1369 -0.0000 0.0000 -60.9283 44.2341 -3.4816 -3.3837 -7.1250 0.0000 -0.0000 13.1573 25.1080 -6.4952 -0.0000 -0.0000 0.0000 25.4070 55.8195 4.1733 -145.1035 44.7381 -105.2596 0.0000 -0.0000 -48.2382 -41.4972 -6.2975 5.5425 7.1250 -0.0000 -0.0000 -12.6551 -38.0745 -2.2002
